<svg xmlns="http://www.w3.org/2000/svg" viewBox="0 0 68.13 85.03"><defs><style>.cls-1{fill:#fff;}</style></defs><title>pinterest0</title><g id="Capa_2" data-name="Capa 2"><g id="Capa_3" data-name="Capa 3"><path id="_Trazado_" data-name="&lt;Trazado&gt;" class="cls-1" d="M36.1,0C22.52,0,8.84,6.13,2.76,18.86a26.93,26.93,0,0,0-1,21.4,16.27,16.27,0,0,0,5.63,7.36c1,.72,2.92,2.08,4.26,1.72s1.5-2.33,1.79-3.47,1-2.61.34-3.76c-.86-1.53-2.19-2.64-2.82-4.35a19.06,19.06,0,0,1-1.07-7.4A23.13,23.13,0,0,1,21,11.93c10.09-6,27.15-5.08,32.83,6.62,2.84,5.85,2.14,13.11.54,19.2-1.49,5.63-4.55,11.9-10.18,14.36-5.1,2.23-12.52.13-12.71-6.31a17.57,17.57,0,0,1,1.15-5.44c.61-2,1.28-4.06,1.91-6.1,1-3.26,2.23-7,1.32-10.4-1.63-6.1-9.17-6-12.86-1.9a14,14,0,0,0-3.33,8.43,22.47,22.47,0,0,0,1,6.69,7.25,7.25,0,0,1,.45,2.69c-.2,1.28-.62,2.56-.93,3.81Q18.6,50.32,17,57c-.94,3.87-2.15,7.79-2.71,11.74A48.24,48.24,0,0,0,14,79.32c.09,1.2.21,2.41.37,3.61.06.48,0,1.59.41,1.95,1,.92,3.07-2.69,3.48-3.27A51.42,51.42,0,0,0,23.36,73c2-4.37,2.94-9.26,4.15-13.89.33-1.25.66-2.5,1-3.74,2,3.76,7,5.68,11,6a24,24,0,0,0,11.26-1.93c7-3,12-9.24,14.69-16.27,2.88-7.59,3.9-16.77.88-24.47A29.13,29.13,0,0,0,51.63,3.39C45.7.56,39.39,0,32.91,0c3.16,0,6.33,0,9.49,0-2.1,0-4.2,0-6.3,0Z"/></g></g></svg>